<svg width="26" height="26" viewBox="0 0 26 26" fill="none" xmlns="http://www.w3.org/2000/svg">
<path d="M23.0022 19.8995L22.9862 19.8895C22.8871 19.8216 22.8027 19.7345 22.7378 19.6334C22.6729 19.5323 22.6289 19.4193 22.6084 19.3009C22.5879 19.1825 22.5913 19.0613 22.6184 18.9442C22.6455 18.8272 22.6958 18.7168 22.7662 18.6195C24.1353 16.2402 24.5886 13.4428 24.0409 10.7529C23.4932 8.06294 21.9822 5.66553 19.7917 4.01097C17.6013 2.35641 14.8821 1.55856 12.1449 1.76727C9.40768 1.97599 6.84088 3.17692 4.92661 5.14448C3.01233 7.11204 1.88231 9.71084 1.7488 12.4527C1.61529 15.1946 2.48748 17.8909 4.20154 20.0351C5.9156 22.1794 8.35358 23.624 11.0575 24.0976C13.7615 24.5713 16.5454 24.0414 18.8862 22.6075C19.2862 22.3615 19.8062 22.4675 20.0802 22.8475L20.0842 22.8495C20.1499 22.9406 20.1965 23.044 20.2211 23.1536C20.2457 23.2632 20.2479 23.3766 20.2276 23.487C20.2072 23.5975 20.1647 23.7027 20.1026 23.7962C20.0405 23.8898 19.9601 23.9698 19.8662 24.0315L19.6982 24.1415C16.9806 25.7753 13.7595 26.3595 10.6411 25.7842C7.5228 25.2088 4.72229 23.5135 2.76667 21.0174C0.811062 18.5213 -0.164791 15.3964 0.0227772 12.231C0.210346 9.0656 1.5484 6.07789 3.78511 3.83018C6.02182 1.58248 9.00294 0.229792 12.1674 0.0267052C15.3319 -0.176381 18.4614 0.784139 20.9671 2.72749C23.4728 4.67084 25.1818 7.463 25.7724 10.5785C26.3631 13.6939 25.7947 16.9179 24.1742 19.6435C24.1168 19.7403 24.0401 19.8242 23.9489 19.8901C23.8576 19.956 23.7538 20.0024 23.6439 20.0264C23.5339 20.0504 23.4202 20.0515 23.3098 20.0297C23.1995 20.0079 23.0947 19.9635 23.0022 19.8995ZM8.30224 8.99553C8.49823 8.80153 8.97823 8.73153 9.21223 8.99553C9.50223 9.30153 9.40823 9.80153 9.21223 10.0115L6.18624 12.9515L9.13823 15.7475C9.33423 15.9415 9.36023 16.4955 9.13823 16.7155C8.87023 16.9815 8.32224 16.9395 8.14024 16.7575L4.69024 13.3195C4.59657 13.2251 4.544 13.0975 4.544 12.9645C4.544 12.8315 4.59657 12.7039 4.69024 12.6095L8.30224 8.99753V8.99553ZM17.6942 8.99553L21.3062 12.6075C21.3999 12.7019 21.4525 12.8295 21.4525 12.9625C21.4525 13.0955 21.3999 13.2231 21.3062 13.3175L17.8582 16.7595C17.6762 16.9395 17.1582 17.0535 16.8582 16.7595C16.5762 16.4795 16.6642 15.9035 16.8582 15.7095L19.8222 12.9555L16.7622 9.98353C16.5662 9.77353 16.5022 9.25553 16.7622 8.99753C17.0162 8.74753 17.4982 8.80353 17.6942 8.99753V8.99553ZM13.9862 8.27553C14.0842 8.01553 14.5702 7.85153 14.8802 7.96753C15.1762 8.07753 15.3502 8.48753 15.2702 8.74753L11.9902 17.7675C11.8942 18.0275 11.4262 18.1315 11.1642 18.0335C10.8862 17.9375 10.5842 17.5535 10.6842 17.2955L13.9842 8.27553H13.9862Z" fill="#D19A36"/>
</svg>
